<svg width="37" height="29" viewBox="0 0 37 29" fill="none" xmlns="http://www.w3.org/2000/svg">
    <path d="M1.5751 0.00145777C1.27907 0.0327076 1.00479 0.172493 0.806103 0.394313C0.607447 0.616134 0.498348 0.903796 0.500019 1.20152V27.6014C0.500019 27.9195 0.626411 28.2247 0.851582 28.4499C1.07647 28.6748 1.38171 28.8012 1.70008 28.8015H35.2999C35.6183 28.8012 35.9235 28.6748 36.1484 28.4499C36.3736 28.2247 36.5 27.9195 36.5 27.6014V1.20152C36.5 0.883447 36.3736 0.578198 36.1484 0.353027C35.9235 0.128143 35.6183 0.00174342 35.2999 0.00146485H1.70008C1.6585 -0.000488284 1.61667 -0.000495368 1.5751 0.00145777ZM2.90017 2.40159H34.1V26.4015H2.90017V10.0516H30.0122C30.3333 10.056 30.6431 9.93158 30.8716 9.70614C31.1003 9.48041 31.2292 9.17266 31.2292 8.8515C31.2292 8.53035 31.1003 8.22232 30.8716 7.99686C30.643 7.77142 30.3333 7.64698 30.0122 7.65144H2.90017V2.40159ZM5.86251 3.71408C5.14487 3.71408 4.56259 4.29639 4.56259 5.01401C4.56259 5.73163 5.14489 6.31393 5.86251 6.31393C6.58013 6.31393 7.16243 5.73163 7.16243 5.01401C7.16243 4.29639 6.58013 3.71408 5.86251 3.71408ZM9.76264 3.71408C9.045 3.71408 8.475 4.29639 8.475 5.01401C8.475 5.73163 9.04503 6.31393 9.76264 6.31393C10.4802 6.31393 11.0626 5.73163 11.0626 5.01401C11.0626 4.29639 10.4803 3.71408 9.76264 3.71408ZM13.675 3.71408C12.9573 3.71408 12.3751 4.29639 12.3751 5.01401C12.3751 5.73163 12.9574 6.31393 13.675 6.31393C14.3926 6.31393 14.9749 5.73163 14.9749 5.01401C14.9749 4.29639 14.3926 3.71408 13.675 3.71408ZM9.675 14.0269C9.56925 14.0297 9.46406 14.0464 9.3625 14.0768C7.69872 14.5408 6.61251 16.1566 6.61251 17.9644C6.61251 19.7722 7.69872 21.4005 9.3625 21.8645C9.67332 21.9619 10.0101 21.929 10.2961 21.7733C10.5821 21.6173 10.7922 21.3523 10.8789 21.0384C10.9654 20.7245 10.9205 20.3888 10.755 20.1087C10.5893 19.8282 10.3167 19.6273 10.0001 19.552C9.526 19.4198 9.01263 18.8152 9.01263 17.9644C9.01263 17.1136 9.52602 16.5216 10.0001 16.3893C10.3843 16.2911 10.6948 16.0096 10.8304 15.6371C10.966 15.2646 10.9088 14.8492 10.6778 14.5269C10.4468 14.2049 10.0715 14.0177 9.675 14.0269ZM27.1621 14.0269C26.7818 14.0632 26.4411 14.2786 26.2455 14.607C26.0496 14.9354 26.022 15.3372 26.171 15.6893C26.32 16.0414 26.6277 16.3011 26.9997 16.3893C27.4738 16.5216 27.9871 17.1137 27.9871 17.9644C27.9871 18.8151 27.4737 19.4197 26.9997 19.552C26.683 19.6273 26.4104 19.8282 26.2447 20.1087C26.0793 20.3888 26.0343 20.7244 26.1208 21.0384C26.2076 21.3523 26.4177 21.6173 26.7037 21.7733C26.9897 21.929 27.3265 21.9619 27.6373 21.8645C29.301 21.4005 30.3873 19.7722 30.3873 17.9644C30.3873 16.1566 29.301 14.5408 27.6373 14.0768C27.4838 14.0286 27.3222 14.0116 27.1621 14.0269ZM13.0871 19.9895C12.7688 20.006 12.4699 20.1483 12.2568 20.3849C12.0433 20.6218 11.9328 20.9337 11.9493 21.2518C11.9658 21.5702 12.1083 21.869 12.3449 22.0822C12.5818 22.2956 12.8938 22.4061 13.2122 22.3894H23.7871C24.1085 22.3938 24.418 22.2697 24.6467 22.0439C24.8755 21.8185 25.0042 21.5107 25.0042 21.1893C25.0042 20.8682 24.8755 20.5604 24.6467 20.335C24.418 20.1092 24.1085 19.9848 23.7871 19.9895H13.2122C13.1703 19.9873 13.1287 19.9873 13.0871 19.9895Z"
          fill="white"/>
</svg>
