<svg width="38" height="36" viewBox="0 0 38 36" fill="none" xmlns="http://www.w3.org/2000/svg">
    <path fill-rule="evenodd" clip-rule="evenodd"
          d="M35.351 19.6157L37.095 21.3597L37.1046 21.3695C37.312 21.5769 37.312 21.9068 37.1046 22.1142L35.3606 23.8395C35.2663 23.9339 35.1343 23.9904 34.9929 23.9904C34.7009 23.9904 34.4557 23.7546 34.4557 23.4623V22.8023H25.028C24.5094 22.8023 24.0852 22.3781 24.0852 21.8595C24.0852 21.3408 24.5094 20.9166 25.028 20.9166H25.1789C28.3654 20.7658 31.0052 18.2863 31.401 15.0339C31.6933 12.5734 30.5335 10.1129 28.4408 8.76476C26.7723 7.68052 24.8112 7.3977 22.9353 7.95387C21.3418 8.42545 20.0032 9.47181 19.1547 10.867C19.1453 10.8765 19.1358 10.8859 19.1358 10.8954C19.0509 11.0368 18.9755 11.1782 18.9095 11.3196C18.7116 11.706 18.5515 12.1021 18.4477 12.5169C18.4193 12.5828 18.3723 12.6299 18.3063 12.6583L18.2498 12.6867L17.788 12.8565C17.5431 12.9509 17.2602 12.8379 17.1564 12.5926C17.1564 12.5831 16.3174 10.349 16.3174 10.349C16.223 10.0851 16.3644 9.7928 16.6378 9.69842C16.7605 9.66085 16.8925 9.66085 17.015 9.71736L17.4957 9.94368C18.1463 8.85942 19.0232 7.93555 20.0695 7.23797C19.2494 6.54982 18.7589 5.48448 18.8628 4.33428C19.0137 2.68471 20.305 1.38357 21.9549 1.24216L22.0018 1.23669C22.0633 1.22935 22.1147 1.22322 22.1907 1.22322V0.506694C22.1907 0.374754 22.2472 0.242814 22.3416 0.148433C22.5395 -0.0494776 22.8696 -0.0494776 23.0676 0.148433L24.7739 1.82645C24.9718 2.02436 24.9718 2.35453 24.7739 2.55245L23.0676 4.22093C22.9732 4.31531 22.8412 4.37181 22.7093 4.37181C22.4265 4.37181 22.2002 4.14549 22.2002 3.86267V3.1272H22.1342C21.3987 3.19346 20.8236 3.76827 20.7576 4.50373C20.6825 5.33329 21.3046 6.06874 22.1342 6.14418C22.1502 6.14418 22.1761 6.14494 22.2059 6.14582H22.206C22.2811 6.14803 22.3806 6.15096 22.4075 6.14418C24.7831 5.43712 27.3569 5.814 29.4686 7.17163C32.1649 8.90637 33.6639 12.0834 33.2772 15.2509C32.9944 17.5511 31.8348 19.5497 30.1568 20.9074H34.4556V19.9834C34.4556 19.842 34.5121 19.7101 34.6064 19.6157C34.8043 19.4083 35.1437 19.4083 35.351 19.6157ZM25.9706 25.6301C25.9706 25.1115 26.3948 24.6873 26.9134 24.6873L26.9128 24.6868C27.4315 24.6868 27.8557 25.1111 27.8557 25.6297V32.9455C27.8557 33.728 27.5353 34.4726 26.9507 35.0477C26.3191 35.6512 25.4517 36 24.5562 36H24.4618C24.4242 36 24.3889 35.9977 24.3536 35.9953L24.3534 35.9953L24.3532 35.9953C24.3179 35.9929 24.2826 35.9906 24.245 35.9906C24.1885 36 24.1411 36 24.0846 36H3.7312C3.6747 36 3.58979 36 3.53329 35.9906C1.61948 35.6512 0.337671 34.2466 0.516641 32.6911V31.2864C0.516641 30.7678 0.940872 30.3436 1.45949 30.3436H3.34485V9.60309C3.34485 8.56618 4.19332 7.71772 5.23022 7.71772L13.7149 7.7174C14.2335 7.7174 14.6577 8.14164 14.6577 8.66025V8.67919C14.6577 9.1978 14.2335 9.62204 13.7149 9.62204L5.23022 9.6031V30.3436H22.1995C22.7181 30.3436 23.1423 30.7678 23.1423 31.2864V32.9174C23.1423 33.5017 23.6894 34.1523 24.5094 34.1712C24.9431 34.2091 25.3484 34.0298 25.6312 33.7564C25.8481 33.5396 25.9706 33.2757 25.9706 33.0024V25.6301ZM2.39313 32.8892C2.30829 33.4644 3.03425 33.964 3.78833 34.1149L21.5399 34.1146C21.3609 33.7282 21.2571 33.304 21.2571 32.8608V32.2292H2.4026V32.7478C2.4026 32.7949 2.4026 32.8422 2.39313 32.8892ZM8.97284 14.3175C8.97284 14.8361 9.39707 15.2603 9.91569 15.2603H15.5532C16.0718 15.2603 16.496 14.8361 16.496 14.3175C16.496 13.7988 16.0718 13.3746 15.5532 13.3746H9.91569C9.39707 13.3746 8.97284 13.7988 8.97284 14.3175ZM21.2287 26.5724H9.91588V26.5728C9.39726 26.5728 8.97303 26.1485 8.97303 25.6299C8.97303 25.1113 9.39726 24.6871 9.91588 24.6871L21.2287 24.6867C21.7473 24.6867 22.1716 25.111 22.1716 25.6296C22.1716 26.1482 21.7473 26.5724 21.2287 26.5724ZM21.2101 17.1457H9.91588C9.39726 17.1457 8.97303 17.5699 8.97303 18.0885C8.97303 18.6071 9.39726 19.0314 9.91588 19.0314H21.2101C21.7288 19.0314 22.153 18.6071 22.153 18.0885C22.153 17.5699 21.7288 17.1457 21.2101 17.1457ZM21.2101 22.802H9.91588C9.39726 22.802 8.97303 22.3778 8.97303 21.8592C8.97303 21.3406 9.39726 20.9163 9.91588 20.9163H21.2101C21.7288 20.9163 22.153 21.3406 22.153 21.8592C22.153 22.3778 21.7288 22.802 21.2101 22.802Z"
          fill="white"/>
</svg>
