<svg width="37" height="36" viewBox="0 0 37 36" fill="none" xmlns="http://www.w3.org/2000/svg">
<path d="M18.4217 28.9795C16.5123 28.9795 14.9551 30.5445 14.9551 32.4617C14.9551 34.3789 16.5123 35.944 18.4217 35.944C20.331 35.944 21.8882 34.3789 21.8882 32.4617C21.8882 30.5445 20.331 28.9795 18.4217 28.9795ZM18.4217 34.0659C17.5452 34.0659 16.8331 33.346 16.8331 32.4617C16.8331 31.5775 17.5452 30.8575 18.4217 30.8575C19.2981 30.8575 20.0102 31.5775 20.0102 32.4617C20.0102 33.346 19.2981 34.0659 18.4217 34.0659Z" fill="white"/>
<path d="M5.70574 6.59169C5.88572 6.77167 6.1283 6.86558 6.37088 6.86558C6.61347 6.86558 6.84822 6.77167 7.03603 6.59169C7.40382 6.22391 7.40382 5.62919 7.03603 5.2614L5.23622 3.4616L7.03603 1.66179C7.40382 1.29401 7.40382 0.69929 7.03603 0.331504C6.66824 -0.0362825 6.07352 -0.0362825 5.70574 0.331504L3.90593 2.13131L2.10613 0.331504C1.73834 -0.0362825 1.14363 -0.0362825 0.77584 0.331504C0.408053 0.69929 0.408053 1.29401 0.77584 1.66179L2.57564 3.4616L0.77584 5.2614C0.408053 5.62919 0.408053 6.22391 0.77584 6.59169C0.95582 6.77167 1.1984 6.86558 1.44098 6.86558C1.68357 6.86558 1.91832 6.77167 2.10613 6.59169L3.90593 4.79189L5.70574 6.59169Z" fill="white"/>
<path d="M16.6297 6.59169C16.8097 6.77167 17.0444 6.86558 17.2949 6.86558C17.5453 6.86558 17.78 6.76385 17.96 6.59169L22.8899 1.66179C23.2577 1.29401 23.2577 0.69929 22.8899 0.331504C22.5221 -0.0362825 21.9274 -0.0362825 21.5596 0.331504L17.2949 4.59626L15.9411 3.24249C15.5733 2.87471 14.9786 2.87471 14.6108 3.24249C14.243 3.61028 14.243 4.205 14.6108 4.57278L16.6297 6.59169Z" fill="white"/>
<path d="M18.4219 27.2423C18.9384 27.2423 19.361 26.8198 19.361 26.3033C19.361 25.7868 18.9384 25.3643 18.4219 25.3643C17.9055 25.3643 17.4829 25.7868 17.4829 26.3033C17.4829 26.8198 17.8976 27.2423 18.4219 27.2423Z" fill="white"/>
<path d="M18.4219 23.6505C18.9384 23.6505 19.361 23.228 19.361 22.7115C19.361 22.195 18.9384 21.7725 18.4219 21.7725C17.9055 21.7725 17.4829 22.195 17.4829 22.7115C17.4829 23.228 17.8976 23.6505 18.4219 23.6505Z" fill="white"/>
<path d="M18.4219 20.0587C18.9384 20.0587 19.361 19.6362 19.361 19.1197C19.361 18.6032 18.9384 18.1807 18.4219 18.1807C17.9055 18.1807 17.4829 18.6032 17.4829 19.1197C17.4829 19.6441 17.8976 20.0587 18.4219 20.0587Z" fill="white"/>
<path d="M34.4242 3.4616L36.224 1.66179C36.5918 1.29401 36.5918 0.69929 36.224 0.331504C35.8562 -0.0362825 35.2615 -0.0362825 34.8937 0.331504L33.0939 2.13131L31.2941 0.331504C30.9263 -0.0362825 30.3316 -0.0362825 29.9638 0.331504C29.596 0.69929 29.596 1.29401 29.9638 1.66179L31.7636 3.4616L29.9638 5.2614C29.596 5.62919 29.596 6.22391 29.9638 6.59169C30.1438 6.77167 30.3864 6.86558 30.629 6.86558C30.8716 6.86558 31.1063 6.77167 31.2941 6.59169L33.0939 4.79189L34.8937 6.59169C35.0737 6.77167 35.3163 6.86558 35.5589 6.86558C35.8015 6.86558 36.0362 6.77167 36.224 6.59169C36.5918 6.22391 36.5918 5.62919 36.224 5.2614L34.4242 3.4616Z" fill="white"/>
<path d="M33.094 8.54785C32.5775 8.54785 32.1549 8.97041 32.1549 9.48688V14.5889H19.3607V9.48688C19.3607 8.97041 18.9381 8.54785 18.4216 8.54785C17.9052 8.54785 17.4826 8.97041 17.4826 9.48688V14.5889H4.84485V9.48688C4.84485 8.97041 4.42229 8.54785 3.90583 8.54785C3.38936 8.54785 2.9668 8.97041 2.9668 9.48688V15.528C2.9668 16.0444 3.38936 16.467 3.90583 16.467H33.094C33.6104 16.467 34.033 16.0444 34.033 15.528V9.48688C34.033 8.97041 33.6104 8.54785 33.094 8.54785Z" fill="white"/>
</svg>
