<svg width="1616" height="1080" viewBox="0 0 1616 1080" fill="none" xmlns="http://www.w3.org/2000/svg">
<g opacity="0.6">
<mask id="mask0_2481_3211" style="mask-type:luminance" maskUnits="userSpaceOnUse" x="0" y="0" width="1619" height="1080">
<path d="M1619 0H0V1080H1619V0Z" fill="white"/>
</mask>
<g mask="url(#mask0_2481_3211)">
<path style="mix-blend-mode:multiply" opacity="0.7" d="M1420.72 972.847C1527.33 866.174 1527.33 693.223 1420.72 586.55C1314.11 479.877 1141.27 479.877 1034.66 586.55C928.054 693.223 928.055 866.174 1034.66 972.847C1141.27 1079.52 1314.11 1079.52 1420.72 972.847Z" fill="url(#paint0_radial_2481_3211)"/>
<path style="mix-blend-mode:multiply" opacity="0.37" d="M1275.71 830.801C1460.58 830.801 1610.45 680.838 1610.45 495.85C1610.45 310.861 1460.58 160.898 1275.71 160.898C1090.83 160.898 940.962 310.861 940.962 495.85C940.962 680.838 1090.83 830.801 1275.71 830.801Z" fill="url(#paint1_radial_2481_3211)"/>
<path style="mix-blend-mode:multiply" opacity="0.37" d="M896.515 676.037C1081.39 676.037 1231.26 526.074 1231.26 341.086C1231.26 156.097 1081.39 6.13434 896.515 6.13434C711.641 6.13434 561.771 156.097 561.771 341.086C561.771 526.074 711.641 676.037 896.515 676.037Z" fill="url(#paint2_radial_2481_3211)"/>
<path style="mix-blend-mode:multiply" opacity="0.37" d="M814.205 1399.9C999.079 1399.9 1148.95 1249.93 1148.95 1064.94C1148.95 879.956 999.079 729.994 814.205 729.994C629.331 729.994 479.461 879.956 479.461 1064.94C479.461 1249.93 629.331 1399.9 814.205 1399.9Z" fill="url(#paint3_radial_2481_3211)"/>
<path style="mix-blend-mode:multiply" opacity="0.7" d="M1438.71 431.849C1623.58 431.849 1773.45 281.886 1773.45 96.8976C1773.45 -88.0909 1623.58 -238.054 1438.71 -238.054C1253.83 -238.054 1103.96 -88.0909 1103.96 96.8976C1103.96 281.886 1253.83 431.849 1438.71 431.849Z" fill="url(#paint4_radial_2481_3211)"/>
<path style="mix-blend-mode:multiply" opacity="0.33" d="M1091.08 355.212C1275.95 355.212 1425.82 205.249 1425.82 20.2608C1425.82 -164.728 1275.95 -314.69 1091.08 -314.69C906.201 -314.69 756.331 -164.728 756.331 20.2608C756.331 205.249 906.201 355.212 1091.08 355.212Z" fill="url(#paint5_radial_2481_3211)"/>
<path d="M1215.95 786.413L1029.19 894.305V1110.13L1215.95 1218.02L1402.74 1110.13V894.305L1215.95 786.413Z" fill="url(#paint6_linear_2481_3211)"/>
<path d="M1215.95 779.695L1023.36 890.957V1113.48L1215.95 1224.74L1408.55 1113.48V890.957L1215.95 779.695ZM1402.74 1110.13L1215.95 1218.05L1029.16 1110.13V894.326L1215.95 786.413L1402.74 894.326V1110.13Z" fill="url(#paint7_radial_2481_3211)"/>
<path d="M1451.64 365.299L1170.84 527.537V851.969L1451.64 1014.21L1732.44 851.969V527.537L1451.64 365.299Z" fill="url(#paint8_linear_2481_3211)"/>
<path d="M1451.64 355.212L1162.1 522.482V857.023L1451.64 1024.29L1741.18 857.023V522.482L1451.64 355.212ZM1732.44 851.969L1451.64 1014.18L1170.84 851.969V527.537L1451.64 365.321L1732.44 527.537V851.99V851.969Z" fill="url(#paint9_radial_2481_3211)"/>
<path d="M1557.69 573.696L1438.53 642.535V780.214L1557.69 849.031L1676.85 780.214V642.535L1557.69 573.696Z" fill="url(#paint10_linear_2481_3211)"/>
<path d="M1557.69 569.419L1434.84 640.397V782.352L1557.69 853.33L1680.54 782.352V640.397L1557.69 569.419ZM1676.85 780.214L1557.69 849.053L1438.53 780.214V642.535L1557.69 573.696L1676.85 642.535V780.214Z" fill="url(#paint11_radial_2481_3211)"/>
<path d="M684.598 -150.574L521.662 -56.4409V131.803L684.598 225.936L847.534 131.803V-56.4409L684.598 -150.574Z" fill="url(#paint12_linear_2481_3211)"/>
<path d="M684.599 -156.427L516.611 -59.3784V134.741L684.62 231.79L852.629 134.741V-59.3784L684.62 -156.427H684.599ZM847.535 131.803L684.599 225.936L521.663 131.803V-56.4408L684.599 -150.574L847.535 -56.4408V131.803Z" fill="url(#paint13_radial_2481_3211)"/>
<path d="M1096.17 222.696L999.785 278.381V389.729L1096.17 445.414L1192.53 389.729V278.381L1096.17 222.696Z" fill="url(#paint14_linear_2481_3211)"/>
<path d="M1096.17 219.24L996.785 276.653V391.478L1096.17 448.891L1195.55 391.478V276.653L1096.17 219.24ZM1192.55 389.729L1096.17 445.414L999.785 389.729V278.381L1096.17 222.696L1192.55 278.381V389.729Z" fill="url(#paint15_radial_2481_3211)"/>
<path d="M753.633 914.933L599.634 1003.9V1181.84L753.633 1270.79L907.632 1181.84V1003.9L753.633 914.933Z" fill="url(#paint16_linear_2481_3211)"/>
<path d="M753.633 909.403L594.842 1001.14V1184.61L753.633 1276.34L912.424 1184.61V1001.14L753.633 909.403ZM907.632 1181.82L753.633 1270.79L599.634 1181.82V1003.9L753.633 914.933L907.632 1003.9V1181.82Z" fill="url(#paint17_radial_2481_3211)"/>
<path style="mix-blend-mode:multiply" opacity="0.37" d="M1502.71 1180.25C1687.58 1180.25 1837.45 1030.28 1837.45 845.294C1837.45 660.306 1687.58 510.343 1502.71 510.343C1317.84 510.343 1167.97 660.306 1167.97 845.294C1167.97 1030.28 1317.84 1180.25 1502.71 1180.25Z" fill="url(#paint18_radial_2481_3211)"/>
<path d="M1447.71 -67.8456L1298.87 18.144V190.123L1447.71 276.091L1596.55 190.123V18.144L1447.71 -67.8456Z" fill="url(#paint19_linear_2481_3211)"/>
<path d="M1447.71 -73.2025L1294.25 15.4655V192.78L1447.73 281.448L1601.21 192.78V15.4655L1447.73 -73.2025H1447.71ZM1596.55 190.102L1447.71 276.091L1298.87 190.102V18.144L1447.71 -67.8457L1596.55 18.144V190.123V190.102Z" fill="url(#paint20_radial_2481_3211)"/>
<path d="M1447.71 12.204L1368.14 58.1688V150.098L1447.71 196.042L1527.28 150.098V58.1688L1447.71 12.204Z" fill="url(#paint21_linear_2481_3211)"/>
<path d="M1447.71 9.33118L1365.68 56.7216V151.502L1447.71 198.893L1529.74 151.502V56.7216L1447.71 9.33118ZM1527.28 150.077L1447.71 196.042L1368.14 150.077V58.1688L1447.71 12.204L1527.28 58.1688V150.098V150.077Z" fill="url(#paint22_radial_2481_3211)"/>
<path d="M1295.54 518.897L1215.98 564.862V656.791L1295.54 702.756L1375.11 656.791V564.862L1295.54 518.897Z" fill="url(#paint23_linear_2481_3211)"/>
<path d="M1295.54 516.046L1213.51 563.436V658.217L1295.54 705.607L1377.57 658.217V563.436L1295.54 516.046ZM1375.11 656.791L1295.54 702.756L1215.98 656.791V564.862L1295.54 518.897L1375.11 564.862V656.791Z" fill="url(#paint24_radial_2481_3211)"/>
<path d="M741.761 578.815L662.192 624.78V716.71L741.761 762.674L821.308 716.71V624.78L741.761 578.815Z" fill="url(#paint25_linear_2481_3211)"/>
<path d="M741.761 575.942L659.731 623.333V718.114L741.761 765.504L823.79 718.114V623.333L741.761 575.942ZM821.329 716.688L741.761 762.653L662.192 716.688V624.758L741.761 578.794L821.329 624.758V716.688Z" fill="url(#paint26_radial_2481_3211)"/>
<path d="M1200.3 905.04L1102.6 961.502V1074.38L1200.3 1130.82L1298 1074.38V961.502L1200.3 905.04Z" fill="url(#paint27_linear_2481_3211)"/>
<path d="M1200.3 901.541L1099.56 959.753V1076.16L1200.3 1134.37L1301.05 1076.16V959.753L1200.3 901.541ZM1298.01 1074.38L1200.3 1130.82L1102.6 1074.38V961.502L1200.3 905.062L1298.01 961.502V1074.38Z" fill="url(#paint28_radial_2481_3211)"/>
<path d="M1502.71 758.073L1336.6 854.042V1045.98L1502.71 1141.95L1668.82 1045.98V854.042L1502.71 758.073ZM1612.26 1013.3L1502.71 1076.59L1393.16 1013.3V886.723L1502.71 823.435L1612.26 886.723V1013.3Z" fill="url(#paint29_linear_2481_3211)"/>
<path d="M1096.17 9.61197L815.371 171.828V496.282L1096.17 658.498L1376.97 496.282V171.828L1096.17 9.61197ZM1281.38 441.05L1096.17 548.035L910.956 441.05V227.059L1096.17 120.074L1281.38 227.059V441.05Z" fill="url(#paint30_linear_2481_3211)"/>
<path d="M910.956 227.059V441.05L1096.17 548.035L1281.38 441.05V227.059L1096.17 120.074L910.956 227.059ZM1272.73 436.061L1096.15 538.056L919.591 436.061V232.049L1096.15 130.054L1272.73 232.049V436.061Z" fill="url(#paint31_linear_2481_3211)"/>
<path d="M1096.15 -0.367218L806.714 166.838V501.271L1096.15 668.477L1385.58 501.271V166.838L1096.15 -0.367218ZM1376.95 496.282L1096.15 658.498L815.349 496.282V171.828L1096.17 9.61198L1376.97 171.828V496.282H1376.95Z" fill="url(#paint32_linear_2481_3211)"/>
<path d="M959.98 888.689L736.256 1017.92V1276.41L959.98 1405.64L1183.7 1276.41V1017.92L959.98 888.689ZM1107.52 1232.41L959.98 1317.64L812.435 1232.41V1061.92L959.98 976.687L1107.52 1061.92V1232.41Z" fill="url(#paint33_linear_2481_3211)"/>
<path d="M812.435 1061.94V1232.43L959.98 1317.66L1107.52 1232.43V1061.94L959.98 976.709L812.435 1061.94ZM1100.66 1228.46L959.98 1309.72L819.3 1228.46V1065.92L959.98 984.658L1100.66 1065.92V1228.46Z" fill="url(#paint34_linear_2481_3211)"/>
<path d="M959.98 880.74L729.391 1013.95V1280.38L959.98 1413.59L1190.57 1280.38V1013.95L959.98 880.74ZM1183.7 1276.41L959.98 1405.64L736.256 1276.41V1017.92L959.98 888.689L1183.7 1017.92V1276.41Z" fill="url(#paint35_linear_2481_3211)"/>
<path d="M1668.43 660.917L1496.56 760.212V958.781L1668.43 1058.08L1840.3 958.781V760.212L1668.43 660.917ZM1781.78 924.977L1668.43 990.468L1555.08 924.977V794.016L1668.43 728.525L1781.78 794.016V924.977Z" fill="url(#paint36_linear_2481_3211)"/>
<path d="M1555.08 793.994V924.955L1668.43 990.446L1781.78 924.955V793.994L1668.43 728.503L1555.08 793.994ZM1776.49 921.91L1668.43 984.334L1560.37 921.91V797.04L1668.43 734.616L1776.49 797.04V921.91Z" fill="url(#paint37_linear_2481_3211)"/>
<path d="M1668.43 654.804L1491.29 757.145V961.826L1668.43 1064.17L1845.57 961.826V757.145L1668.43 654.804ZM1840.3 958.759L1668.43 1058.05L1496.56 958.759V760.19L1668.43 660.895L1840.3 760.19V958.759Z" fill="url(#paint38_linear_2481_3211)"/>
<path d="M1096.17 -257.645L924.297 -158.35V40.2192L1096.17 139.514L1268.04 40.2192V-158.371L1096.17 -257.666V-257.645ZM1209.52 6.41516L1096.17 71.9064L982.818 6.41516V-124.567L1096.17 -190.058L1209.52 -124.567V6.41516Z" fill="url(#paint39_linear_2481_3211)"/>
<path d="M982.818 -124.567V6.41518L1096.17 71.9064L1209.52 6.41518V-124.567L1096.17 -190.058L982.818 -124.567ZM1204.23 3.34798L1096.17 65.772L988.086 3.34798V-121.5L1096.15 -183.924L1204.21 -121.5V3.34798H1204.23Z" fill="url(#paint40_linear_2481_3211)"/>
<path d="M1096.17 -263.758L919.03 -161.417V43.2648L1096.17 145.606L1273.31 43.2648V-161.417L1096.17 -263.758ZM1268.02 40.2192L1096.15 139.514L924.275 40.2192V-158.371L1096.15 -257.666L1268.02 -158.371V40.2192Z" fill="url(#paint41_linear_2481_3211)"/>
<path d="M1575.37 257.17L1458.7 324.562V459.367L1575.37 526.759L1692.05 459.367V324.562L1575.37 257.17ZM1652.33 436.428L1575.37 480.881L1498.42 436.428V347.522L1575.37 303.07L1652.33 347.522V436.428Z" fill="url(#paint42_linear_2481_3211)"/>
<path d="M1498.42 347.522V436.428L1575.37 480.881L1652.33 436.428V347.522L1575.37 303.07L1498.42 347.522ZM1648.72 434.354L1575.37 476.734L1502.02 434.354V349.596L1575.37 307.217L1648.72 349.596V434.354Z" fill="url(#paint43_linear_2481_3211)"/>
<path d="M1575.37 253.022L1455.11 322.488V461.441L1575.37 530.906L1695.63 461.441V322.488L1575.37 253.022ZM1692.05 459.367L1575.37 526.759L1458.7 459.367V324.562L1575.37 257.17L1692.05 324.562V459.367Z" fill="url(#paint44_linear_2481_3211)"/>
<path d="M962.613 632.513L845.938 699.905V834.71L962.613 902.102L1079.29 834.71V699.905L962.613 632.513ZM1039.57 811.771L962.613 856.224L885.657 811.771V722.866L962.613 678.413L1039.57 722.866V811.771Z" fill="url(#paint45_linear_2481_3211)"/>
<path d="M885.657 722.866V811.771L962.613 856.224L1039.57 811.771V722.866L962.613 678.413L885.657 722.866ZM1035.96 809.698L962.613 852.077L889.262 809.698V724.939L962.613 682.56L1035.96 724.939V809.698Z" fill="url(#paint46_linear_2481_3211)"/>
<path d="M962.613 628.366L842.354 697.831V836.784L962.613 906.25L1082.87 836.784V697.831L962.613 628.366ZM1079.29 834.71L962.613 902.102L845.937 834.71V699.905L962.613 632.513L1079.29 699.905V834.71Z" fill="url(#paint47_linear_2481_3211)"/>
<path d="M1202.68 1113.78C1202.55 1113.72 1202.42 1113.65 1202.31 1113.59V919.706C1202.44 919.642 1202.57 919.577 1202.68 919.512C1207.66 916.639 1209.37 910.246 1206.5 905.256C1203.63 900.266 1197.24 898.56 1192.25 901.433C1192.12 901.498 1192.01 901.584 1191.91 901.67L1024.11 804.73C1024.11 804.578 1024.11 804.449 1024.11 804.298C1024.11 798.53 1019.45 793.865 1013.69 793.865C1007.92 793.865 1003.26 798.53 1003.26 804.298C1003.26 804.449 1003.26 804.578 1003.26 804.708L835.468 901.649C835.338 901.584 835.23 901.498 835.122 901.411C830.136 898.538 823.746 900.245 820.875 905.234C818.004 910.224 819.71 916.618 824.696 919.49C824.826 919.555 824.955 919.62 825.063 919.685V1113.57C824.934 1113.63 824.804 1113.7 824.696 1113.76C819.71 1116.63 818.004 1123.03 820.875 1128.02C823.746 1133.01 830.136 1134.71 835.122 1131.84C835.252 1131.78 835.36 1131.69 835.468 1131.6L1003.26 1228.54C1003.26 1228.69 1003.26 1228.82 1003.26 1228.95C1003.26 1234.72 1007.92 1239.39 1013.69 1239.39C1019.45 1239.39 1024.11 1234.72 1024.11 1228.95C1024.11 1228.8 1024.11 1228.67 1024.11 1228.54L1191.91 1131.6C1192.04 1131.67 1192.14 1131.75 1192.25 1131.84C1197.24 1134.71 1203.63 1133.01 1206.5 1128.02C1209.37 1123.03 1207.66 1116.63 1202.68 1113.76V1113.78ZM1013.69 1218.56C1009.63 1218.56 1006.13 1220.88 1004.4 1224.27L838.663 1128.51C840.735 1125.32 840.972 1121.13 838.943 1117.61C836.914 1114.08 833.158 1112.21 829.359 1112.4V920.894C833.158 921.089 836.914 919.21 838.943 915.689C840.972 912.168 840.713 907.978 838.663 904.781L1004.4 809.028C1006.13 812.398 1009.63 814.73 1013.69 814.73C1017.75 814.73 1021.24 812.419 1022.97 809.028L1188.71 904.781C1186.64 907.978 1186.4 912.168 1188.43 915.689C1190.46 919.21 1194.22 921.089 1198.02 920.894V1112.4C1194.22 1112.21 1190.46 1114.08 1188.43 1117.61C1186.4 1121.13 1186.66 1125.32 1188.71 1128.51L1022.97 1224.27C1021.24 1220.88 1017.75 1218.56 1013.69 1218.56Z" fill="url(#paint48_linear_2481_3211)"/>
<path d="M1462.47 625.86C1462.34 625.795 1462.21 625.73 1462.11 625.666V431.784C1462.24 431.719 1462.37 431.654 1462.47 431.59C1467.46 428.717 1469.17 422.323 1466.29 417.334C1463.42 412.344 1457.03 410.638 1452.05 413.51C1451.92 413.575 1451.81 413.662 1451.7 413.748L1283.91 316.807C1283.91 316.656 1283.91 316.526 1283.91 316.375C1283.91 310.608 1279.25 305.942 1273.48 305.942C1267.72 305.942 1263.06 310.608 1263.06 316.375C1263.06 316.526 1263.06 316.656 1263.06 316.786L1095.26 413.726C1095.13 413.662 1095.03 413.575 1094.92 413.489C1089.93 410.616 1083.54 412.322 1080.67 417.312C1077.8 422.302 1079.5 428.695 1084.49 431.568C1084.62 431.633 1084.75 431.698 1084.86 431.762V625.644C1084.73 625.709 1084.6 625.774 1084.49 625.838C1079.5 628.711 1077.8 635.105 1080.67 640.094C1083.54 645.084 1089.93 646.79 1094.92 643.918C1095.05 643.853 1095.16 643.766 1095.26 643.68L1263.06 740.621C1263.06 740.772 1263.06 740.902 1263.06 741.031C1263.06 746.798 1267.72 751.464 1273.48 751.464C1279.25 751.464 1283.91 746.798 1283.91 741.031C1283.91 740.88 1283.91 740.75 1283.91 740.621L1451.7 643.68C1451.83 643.745 1451.94 643.831 1452.05 643.918C1457.03 646.79 1463.42 645.084 1466.29 640.094C1469.17 635.105 1467.46 628.711 1462.47 625.838V625.86ZM1273.48 730.642C1269.42 730.642 1265.93 732.953 1264.2 736.344L1098.46 640.591C1100.53 637.394 1100.77 633.204 1098.74 629.683C1096.71 626.162 1092.95 624.283 1089.15 624.478V432.972C1092.95 433.166 1096.71 431.287 1098.74 427.766C1100.77 424.246 1100.51 420.055 1098.46 416.858L1264.2 321.106C1265.93 324.475 1269.42 326.808 1273.48 326.808C1277.54 326.808 1281.04 324.497 1282.76 321.106L1448.51 416.858C1446.43 420.055 1446.2 424.246 1448.23 427.766C1450.26 431.287 1454.01 433.166 1457.81 432.972V624.478C1454.01 624.283 1450.26 626.162 1448.23 629.683C1446.2 633.204 1446.46 637.394 1448.51 640.591L1282.76 736.344C1281.04 732.953 1277.54 730.642 1273.48 730.642Z" fill="url(#paint49_linear_2481_3211)"/>
<path d="M1068.22 202.738C1068.09 202.673 1067.96 202.608 1067.85 202.543V8.66155C1067.98 8.59676 1068.11 8.53194 1068.22 8.46715C1073.2 5.59435 1074.91 -0.799248 1072.04 -5.78885C1069.17 -10.7785 1062.78 -12.4848 1057.79 -9.61205C1057.66 -9.54725 1057.55 -9.46085 1057.44 -9.37445L889.651 -106.315C889.651 -106.466 889.651 -106.596 889.651 -106.747C889.651 -112.514 884.988 -117.18 879.224 -117.18C873.461 -117.18 868.798 -112.514 868.798 -106.747C868.798 -106.596 868.798 -106.466 868.798 -106.337L701.005 -9.39605C700.875 -9.46085 700.767 -9.54725 700.659 -9.63364C695.673 -12.5064 689.283 -10.8 686.412 -5.81045C683.541 -0.820847 685.247 5.57275 690.233 8.44555C690.363 8.51035 690.492 8.57515 690.6 8.63995V202.543C690.471 202.608 690.341 202.673 690.233 202.738C685.247 205.61 683.541 212.004 686.412 216.994C689.283 221.983 695.673 223.69 700.659 220.817C700.789 220.752 700.897 220.666 701.005 220.579L868.798 317.52C868.798 317.671 868.798 317.801 868.798 317.93C868.798 323.698 873.461 328.363 879.224 328.363C884.988 328.363 889.651 323.698 889.651 317.93C889.651 317.779 889.651 317.65 889.651 317.52L1057.44 220.579C1057.57 220.644 1057.68 220.73 1057.79 220.817C1062.78 223.69 1069.17 221.983 1072.04 216.994C1074.91 212.004 1073.2 205.61 1068.22 202.738ZM879.224 307.519C875.166 307.519 871.669 309.83 869.942 313.222L704.2 217.469C706.272 214.272 706.509 210.082 704.48 206.561C702.451 203.04 698.695 201.161 694.896 201.355V9.84956C698.695 10.044 702.451 8.16476 704.48 4.64395C706.509 1.12315 706.25 -3.06725 704.2 -6.26405L869.942 -102.017C871.669 -98.6473 875.166 -96.3145 879.224 -96.3145C883.282 -96.3145 886.78 -98.6257 888.506 -102.017L1054.25 -6.26405C1052.18 -3.06725 1051.94 1.12315 1053.97 4.64395C1056 8.16476 1059.75 10.044 1063.55 9.84956V201.355C1059.75 201.161 1056 203.04 1053.97 206.561C1051.94 210.082 1052.2 214.272 1054.25 217.469L888.506 313.222C886.78 309.852 883.282 307.519 879.224 307.519Z" fill="url(#paint50_linear_2481_3211)"/>
<path d="M1817.36 165.823C1817.23 165.758 1817.1 165.694 1816.99 165.629V-28.2528C1817.12 -28.3176 1817.25 -28.3824 1817.36 -28.4472C1822.34 -31.32 1824.05 -37.7136 1821.18 -42.7032C1818.31 -47.6928 1811.92 -49.3992 1806.93 -46.5264C1806.8 -46.4616 1806.69 -46.3752 1806.59 -46.2888L1638.79 -143.23C1638.79 -143.381 1638.79 -143.51 1638.79 -143.662C1638.79 -149.429 1634.13 -154.094 1628.37 -154.094C1622.6 -154.094 1617.94 -149.429 1617.94 -143.662C1617.94 -143.51 1617.94 -143.381 1617.94 -143.23L1450.15 -46.2888C1450.02 -46.3536 1449.91 -46.44 1449.8 -46.5264C1444.82 -49.3992 1438.43 -47.6928 1435.55 -42.7032C1432.68 -37.7136 1434.39 -31.32 1439.38 -28.4472C1439.51 -28.3824 1439.63 -28.3176 1439.74 -28.2528V165.629C1439.61 165.694 1439.48 165.758 1439.38 165.823C1434.39 168.696 1432.68 175.09 1435.55 180.079C1438.43 185.069 1444.82 186.775 1449.8 183.902C1449.93 183.838 1450.04 183.751 1450.15 183.665L1617.94 280.606C1617.94 280.757 1617.94 280.886 1617.94 281.016C1617.94 286.783 1622.6 291.449 1628.37 291.449C1634.13 291.449 1638.79 286.783 1638.79 281.016C1638.79 280.865 1638.79 280.735 1638.79 280.606L1806.59 183.665C1806.72 183.73 1806.82 183.816 1806.93 183.902C1811.92 186.775 1818.31 185.069 1821.18 180.079C1824.05 175.09 1822.34 168.696 1817.36 165.823ZM1628.37 270.605C1624.31 270.605 1620.81 272.916 1619.08 276.307L1453.34 180.554C1455.41 177.358 1455.65 173.167 1453.62 169.646C1451.59 166.126 1447.84 164.246 1444.04 164.441V-27.0648C1447.84 -26.8704 1451.59 -28.7496 1453.62 -32.2704C1455.65 -35.7912 1455.39 -39.9816 1453.34 -43.1784L1619.08 -138.931C1620.81 -135.562 1624.31 -133.229 1628.37 -133.229C1632.43 -133.229 1635.92 -135.54 1637.65 -138.931L1803.39 -43.1784C1801.32 -39.9816 1801.08 -35.7912 1803.11 -32.2704C1805.14 -28.7496 1808.9 -26.8704 1812.7 -27.0648V164.462C1808.9 164.268 1805.14 166.147 1803.11 169.668C1801.08 173.189 1801.34 177.379 1803.39 180.576L1637.65 276.329C1635.92 272.938 1632.43 270.626 1628.37 270.626V270.605Z" fill="url(#paint51_linear_2481_3211)"/>
<path d="M961.728 739.93C961.598 739.865 961.469 739.8 961.361 739.735V545.854C961.491 545.789 961.62 545.724 961.728 545.659C966.714 542.786 968.42 536.393 965.549 531.403C962.678 526.414 956.288 524.707 951.302 527.58C951.172 527.645 951.064 527.731 950.956 527.818L783.163 430.877C783.163 430.726 783.163 430.596 783.163 430.445C783.163 424.678 778.501 420.012 772.737 420.012C766.973 420.012 762.311 424.678 762.311 430.445C762.311 430.596 762.311 430.726 762.311 430.855L594.518 527.796C594.388 527.731 594.28 527.645 594.172 527.558C589.186 524.686 582.796 526.392 579.925 531.382C577.054 536.371 578.759 542.765 583.746 545.638C583.875 545.702 584.005 545.767 584.113 545.832V739.714C583.983 739.778 583.854 739.843 583.746 739.908C578.759 742.781 577.054 749.174 579.925 754.164C582.796 759.154 589.186 760.86 594.172 757.987C594.302 757.922 594.41 757.836 594.518 757.75L762.311 854.69C762.311 854.842 762.311 854.971 762.311 855.101C762.311 860.868 766.973 865.534 772.737 865.534C778.501 865.534 783.163 860.868 783.163 855.101C783.163 854.95 783.163 854.82 783.163 854.69L950.956 757.75C951.086 757.814 951.194 757.901 951.302 757.987C956.288 760.86 962.678 759.154 965.549 754.164C968.42 749.174 966.714 742.781 961.728 739.908V739.93ZM772.737 844.711C768.679 844.711 765.182 847.022 763.455 850.414L597.712 754.661C599.785 751.464 600.022 747.274 597.993 743.753C595.964 740.232 592.208 738.353 588.409 738.547V547.042C592.208 547.236 595.964 545.357 597.993 541.836C600.022 538.315 599.763 534.125 597.712 530.928L763.455 435.175C765.182 438.545 768.679 440.878 772.737 440.878C776.795 440.878 780.292 438.566 782.019 435.175L947.761 530.928C945.689 534.125 945.452 538.315 947.481 541.836C949.51 545.357 953.266 547.236 957.065 547.042V738.547C953.266 738.353 949.51 740.232 947.481 743.753C945.452 747.274 945.711 751.464 947.761 754.661L782.019 850.414C780.292 847.022 776.795 844.711 772.737 844.711Z" fill="url(#paint52_linear_2481_3211)"/>
</g>
</g>
<defs>
<radialGradient id="paint0_radial_2481_3211" cx="0" cy="0" r="1" gradientUnits="userSpaceOnUse" gradientTransform="translate(1227.68 779.696) scale(272.985 273.154)">
<stop stop-color="#8C8C8C"/>
<stop offset="0.05" stop-color="#969696"/>
<stop offset="0.24" stop-color="#BCBCBC"/>
<stop offset="0.44" stop-color="#D9D9D9"/>
<stop offset="0.63" stop-color="#EEEEEE"/>
<stop offset="0.82" stop-color="#FAFAFA"/>
<stop offset="1" stop-color="white"/>
</radialGradient>
<radialGradient id="paint1_radial_2481_3211" cx="0" cy="0" r="1" gradientUnits="userSpaceOnUse" gradientTransform="translate(1275.71 495.85) scale(334.744 334.951)">
<stop stop-color="#8C8C8C"/>
<stop offset="0.05" stop-color="#969696"/>
<stop offset="0.24" stop-color="#BCBCBC"/>
<stop offset="0.44" stop-color="#D9D9D9"/>
<stop offset="0.63" stop-color="#EEEEEE"/>
<stop offset="0.82" stop-color="#FAFAFA"/>
<stop offset="1" stop-color="white"/>
</radialGradient>
<radialGradient id="paint2_radial_2481_3211" cx="0" cy="0" r="1" gradientUnits="userSpaceOnUse" gradientTransform="translate(896.515 341.086) scale(334.744 334.951)">
<stop stop-color="#8C8C8C"/>
<stop offset="0.05" stop-color="#969696"/>
<stop offset="0.24" stop-color="#BCBCBC"/>
<stop offset="0.44" stop-color="#D9D9D9"/>
<stop offset="0.63" stop-color="#EEEEEE"/>
<stop offset="0.82" stop-color="#FAFAFA"/>
<stop offset="1" stop-color="white"/>
</radialGradient>
<radialGradient id="paint3_radial_2481_3211" cx="0" cy="0" r="1" gradientUnits="userSpaceOnUse" gradientTransform="translate(814.205 1064.94) scale(334.744 334.951)">
<stop stop-color="#8C8C8C"/>
<stop offset="0.05" stop-color="#969696"/>
<stop offset="0.24" stop-color="#BCBCBC"/>
<stop offset="0.44" stop-color="#D9D9D9"/>
<stop offset="0.63" stop-color="#EEEEEE"/>
<stop offset="0.82" stop-color="#FAFAFA"/>
<stop offset="1" stop-color="white"/>
</radialGradient>
<radialGradient id="paint4_radial_2481_3211" cx="0" cy="0" r="1" gradientUnits="userSpaceOnUse" gradientTransform="translate(1438.71 96.8975) scale(334.744 334.951)">
<stop stop-color="#8C8C8C"/>
<stop offset="0.05" stop-color="#969696"/>
<stop offset="0.24" stop-color="#BCBCBC"/>
<stop offset="0.44" stop-color="#D9D9D9"/>
<stop offset="0.63" stop-color="#EEEEEE"/>
<stop offset="0.82" stop-color="#FAFAFA"/>
<stop offset="1" stop-color="white"/>
</radialGradient>
<radialGradient id="paint5_radial_2481_3211" cx="0" cy="0" r="1" gradientUnits="userSpaceOnUse" gradientTransform="translate(1091.08 20.2608) scale(334.744 334.951)">
<stop stop-color="#8C8C8C"/>
<stop offset="0.05" stop-color="#969696"/>
<stop offset="0.24" stop-color="#BCBCBC"/>
<stop offset="0.44" stop-color="#D9D9D9"/>
<stop offset="0.63" stop-color="#EEEEEE"/>
<stop offset="0.82" stop-color="#FAFAFA"/>
<stop offset="1" stop-color="white"/>
</radialGradient>
<linearGradient id="paint6_linear_2481_3211" x1="1215.95" y1="844.085" x2="1215.95" y2="1147.48" gradientUnits="userSpaceOnUse">
<stop stop-color="white" stop-opacity="0"/>
<stop offset="1" stop-color="#F0F0F0"/>
</linearGradient>
<radialGradient id="paint7_radial_2481_3211" cx="0" cy="0" r="1" gradientUnits="userSpaceOnUse" gradientTransform="translate(1104.7 895.169) scale(540.27 540.605)">
<stop stop-color="white" stop-opacity="0"/>
<stop offset="1" stop-color="#F0F0F0"/>
</radialGradient>
<linearGradient id="paint8_linear_2481_3211" x1="1451.64" y1="452.002" x2="1451.64" y2="908.129" gradientUnits="userSpaceOnUse">
<stop stop-color="white" stop-opacity="0"/>
<stop offset="1" stop-color="#F0F0F0"/>
</linearGradient>
<radialGradient id="paint9_radial_2481_3211" cx="0" cy="0" r="1" gradientUnits="userSpaceOnUse" gradientTransform="translate(1284.36 528.811) scale(812.24 812.743)">
<stop stop-color="white" stop-opacity="0"/>
<stop offset="1" stop-color="#F0F0F0"/>
</radialGradient>
<linearGradient id="paint10_linear_2481_3211" x1="1557.69" y1="610.481" x2="1557.69" y2="804.038" gradientUnits="userSpaceOnUse">
<stop stop-color="white" stop-opacity="0"/>
<stop offset="1" stop-color="#F0F0F0"/>
</linearGradient>
<radialGradient id="paint11_radial_2481_3211" cx="0" cy="0" r="1" gradientUnits="userSpaceOnUse" gradientTransform="translate(1486.72 643.075) scale(344.652 344.866)">
<stop stop-color="white" stop-opacity="0"/>
<stop offset="1" stop-color="#F0F0F0"/>
</radialGradient>
<linearGradient id="paint12_linear_2481_3211" x1="684.598" y1="-100.267" x2="684.598" y2="164.398" gradientUnits="userSpaceOnUse">
<stop stop-color="white" stop-opacity="0"/>
<stop offset="1" stop-color="#F0F0F0"/>
</linearGradient>
<radialGradient id="paint13_radial_2481_3211" cx="0" cy="0" r="1" gradientUnits="userSpaceOnUse" gradientTransform="translate(587.545 -55.7064) scale(471.28 471.571)">
<stop stop-color="white" stop-opacity="0"/>
<stop offset="1" stop-color="#F0F0F0"/>
</radialGradient>
<linearGradient id="paint14_linear_2481_3211" x1="1096.17" y1="252.461" x2="1096.17" y2="408.996" gradientUnits="userSpaceOnUse">
<stop stop-color="white" stop-opacity="0"/>
<stop offset="1" stop-color="#F0F0F0"/>
</linearGradient>
<radialGradient id="paint15_radial_2481_3211" cx="0" cy="0" r="1" gradientUnits="userSpaceOnUse" gradientTransform="translate(1038.75 278.813) scale(278.77 278.942)">
<stop stop-color="white" stop-opacity="0"/>
<stop offset="1" stop-color="#F0F0F0"/>
</radialGradient>
<linearGradient id="paint16_linear_2481_3211" x1="753.633" y1="962.496" x2="753.633" y2="1212.62" gradientUnits="userSpaceOnUse">
<stop stop-color="white" stop-opacity="0"/>
<stop offset="1" stop-color="#F0F0F0"/>
</linearGradient>
<radialGradient id="paint17_radial_2481_3211" cx="0" cy="0" r="1" gradientUnits="userSpaceOnUse" gradientTransform="translate(661.912 1004.62) scale(445.44 445.716)">
<stop stop-color="white" stop-opacity="0"/>
<stop offset="1" stop-color="#F0F0F0"/>
</radialGradient>
<radialGradient id="paint18_radial_2481_3211" cx="0" cy="0" r="1" gradientUnits="userSpaceOnUse" gradientTransform="translate(1502.71 845.294) scale(334.744 334.951)">
<stop stop-color="#8C8C8C"/>
<stop offset="0.05" stop-color="#969696"/>
<stop offset="0.24" stop-color="#BCBCBC"/>
<stop offset="0.44" stop-color="#D9D9D9"/>
<stop offset="0.63" stop-color="#EEEEEE"/>
<stop offset="0.82" stop-color="#FAFAFA"/>
<stop offset="1" stop-color="white"/>
</radialGradient>
<linearGradient id="paint19_linear_2481_3211" x1="1447.71" y1="-21.9024" x2="1447.71" y2="219.888" gradientUnits="userSpaceOnUse">
<stop stop-color="white" stop-opacity="0"/>
<stop offset="1" stop-color="#F0F0F0"/>
</linearGradient>
<radialGradient id="paint20_radial_2481_3211" cx="0" cy="0" r="1" gradientUnits="userSpaceOnUse" gradientTransform="translate(1359.05 18.8135) scale(430.546 430.812)">
<stop stop-color="white" stop-opacity="0"/>
<stop offset="1" stop-color="#F0F0F0"/>
</radialGradient>
<linearGradient id="paint21_linear_2481_3211" x1="1447.71" y1="36.7632" x2="1447.71" y2="165.996" gradientUnits="userSpaceOnUse">
<stop stop-color="white" stop-opacity="0"/>
<stop offset="1" stop-color="#F0F0F0"/>
</linearGradient>
<radialGradient id="paint22_radial_2481_3211" cx="0" cy="0" r="1" gradientUnits="userSpaceOnUse" gradientTransform="translate(1400.33 58.536) scale(230.135 230.278)">
<stop stop-color="white" stop-opacity="0"/>
<stop offset="1" stop-color="#F0F0F0"/>
</radialGradient>
<linearGradient id="paint23_linear_2481_3211" x1="1295.54" y1="543.478" x2="1295.54" y2="672.71" gradientUnits="userSpaceOnUse">
<stop stop-color="white" stop-opacity="0"/>
<stop offset="1" stop-color="#F0F0F0"/>
</linearGradient>
<radialGradient id="paint24_radial_2481_3211" cx="0" cy="0" r="1" gradientUnits="userSpaceOnUse" gradientTransform="translate(1248.14 565.229) scale(230.135 230.278)">
<stop stop-color="white" stop-opacity="0"/>
<stop offset="1" stop-color="#F0F0F0"/>
</radialGradient>
<linearGradient id="paint25_linear_2481_3211" x1="741.761" y1="603.374" x2="741.761" y2="732.607" gradientUnits="userSpaceOnUse">
<stop stop-color="white" stop-opacity="0"/>
<stop offset="1" stop-color="#F0F0F0"/>
</linearGradient>
<radialGradient id="paint26_radial_2481_3211" cx="0" cy="0" r="1" gradientUnits="userSpaceOnUse" gradientTransform="translate(694.356 625.147) scale(230.135 230.278)">
<stop stop-color="white" stop-opacity="0"/>
<stop offset="1" stop-color="#F0F0F0"/>
</radialGradient>
<linearGradient id="paint27_linear_2481_3211" x1="1200.3" y1="935.215" x2="1200.3" y2="1093.93" gradientUnits="userSpaceOnUse">
<stop stop-color="white" stop-opacity="0"/>
<stop offset="1" stop-color="#F0F0F0"/>
</linearGradient>
<radialGradient id="paint28_radial_2481_3211" cx="0" cy="0" r="1" gradientUnits="userSpaceOnUse" gradientTransform="translate(1142.11 961.934) scale(282.612 282.787)">
<stop stop-color="white" stop-opacity="0"/>
<stop offset="1" stop-color="#F0F0F0"/>
</radialGradient>
<linearGradient id="paint29_linear_2481_3211" x1="1502.71" y1="809.373" x2="1502.71" y2="1079.2" gradientUnits="userSpaceOnUse">
<stop stop-color="white" stop-opacity="0"/>
<stop offset="1" stop-color="#F0F0F0"/>
</linearGradient>
<linearGradient id="paint30_linear_2481_3211" x1="1096.17" y1="96.2928" x2="1096.17" y2="552.442" gradientUnits="userSpaceOnUse">
<stop stop-color="white" stop-opacity="0"/>
<stop offset="1" stop-color="#F0F0F0"/>
</linearGradient>
<linearGradient id="paint31_linear_2481_3211" x1="1096.17" y1="23.0904" x2="1096.17" y2="430.898" gradientUnits="userSpaceOnUse">
<stop stop-color="white" stop-opacity="0"/>
<stop offset="1" stop-color="#F0F0F0"/>
</linearGradient>
<linearGradient id="paint32_linear_2481_3211" x1="1096.17" y1="23.0904" x2="1096.17" y2="430.898" gradientUnits="userSpaceOnUse">
<stop stop-color="white" stop-opacity="0"/>
<stop offset="1" stop-color="#F0F0F0"/>
</linearGradient>
<linearGradient id="paint33_linear_2481_3211" x1="959.98" y1="957.766" x2="959.98" y2="1321.16" gradientUnits="userSpaceOnUse">
<stop stop-color="white" stop-opacity="0"/>
<stop offset="1" stop-color="#F0F0F0"/>
</linearGradient>
<linearGradient id="paint34_linear_2481_3211" x1="959.98" y1="899.446" x2="959.98" y2="1224.33" gradientUnits="userSpaceOnUse">
<stop stop-color="white" stop-opacity="0"/>
<stop offset="1" stop-color="#F0F0F0"/>
</linearGradient>
<linearGradient id="paint35_linear_2481_3211" x1="959.98" y1="899.446" x2="959.98" y2="1224.33" gradientUnits="userSpaceOnUse">
<stop stop-color="white" stop-opacity="0"/>
<stop offset="1" stop-color="#F0F0F0"/>
</linearGradient>
<linearGradient id="paint36_linear_2481_3211" x1="1668.43" y1="713.966" x2="1668.43" y2="993.146" gradientUnits="userSpaceOnUse">
<stop stop-color="white" stop-opacity="0"/>
<stop offset="1" stop-color="#F0F0F0"/>
</linearGradient>
<linearGradient id="paint37_linear_2481_3211" x1="1668.43" y1="669.168" x2="1668.43" y2="918.756" gradientUnits="userSpaceOnUse">
<stop stop-color="white" stop-opacity="0"/>
<stop offset="1" stop-color="#F0F0F0"/>
</linearGradient>
<linearGradient id="paint38_linear_2481_3211" x1="1668.43" y1="669.168" x2="1668.43" y2="918.756" gradientUnits="userSpaceOnUse">
<stop stop-color="white" stop-opacity="0"/>
<stop offset="1" stop-color="#F0F0F0"/>
</linearGradient>
<linearGradient id="paint39_linear_2481_3211" x1="1096.17" y1="-204.595" x2="1096.17" y2="74.5848" gradientUnits="userSpaceOnUse">
<stop stop-color="white" stop-opacity="0"/>
<stop offset="1" stop-color="#F0F0F0"/>
</linearGradient>
<linearGradient id="paint40_linear_2481_3211" x1="1096.17" y1="-249.394" x2="1096.17" y2="0.194376" gradientUnits="userSpaceOnUse">
<stop stop-color="white" stop-opacity="0"/>
<stop offset="1" stop-color="#F0F0F0"/>
</linearGradient>
<linearGradient id="paint41_linear_2481_3211" x1="1096.17" y1="-249.394" x2="1096.17" y2="0.194381" gradientUnits="userSpaceOnUse">
<stop stop-color="white" stop-opacity="0"/>
<stop offset="1" stop-color="#F0F0F0"/>
</linearGradient>
<linearGradient id="paint42_linear_2481_3211" x1="1575.37" y1="293.198" x2="1575.37" y2="482.695" gradientUnits="userSpaceOnUse">
<stop stop-color="white" stop-opacity="0"/>
<stop offset="1" stop-color="#F0F0F0"/>
</linearGradient>
<linearGradient id="paint43_linear_2481_3211" x1="1575.37" y1="262.764" x2="1575.37" y2="432.194" gradientUnits="userSpaceOnUse">
<stop stop-color="white" stop-opacity="0"/>
<stop offset="1" stop-color="#F0F0F0"/>
</linearGradient>
<linearGradient id="paint44_linear_2481_3211" x1="1575.37" y1="262.764" x2="1575.37" y2="432.194" gradientUnits="userSpaceOnUse">
<stop stop-color="white" stop-opacity="0"/>
<stop offset="1" stop-color="#F0F0F0"/>
</linearGradient>
<linearGradient id="paint45_linear_2481_3211" x1="962.613" y1="668.542" x2="962.613" y2="858.06" gradientUnits="userSpaceOnUse">
<stop stop-color="white" stop-opacity="0"/>
<stop offset="1" stop-color="#F0F0F0"/>
</linearGradient>
<linearGradient id="paint46_linear_2481_3211" x1="962.613" y1="638.129" x2="962.613" y2="807.559" gradientUnits="userSpaceOnUse">
<stop stop-color="white" stop-opacity="0"/>
<stop offset="1" stop-color="#F0F0F0"/>
</linearGradient>
<linearGradient id="paint47_linear_2481_3211" x1="962.613" y1="638.129" x2="962.613" y2="807.559" gradientUnits="userSpaceOnUse">
<stop stop-color="white" stop-opacity="0"/>
<stop offset="1" stop-color="#F0F0F0"/>
</linearGradient>
<linearGradient id="paint48_linear_2481_3211" x1="1013.67" y1="793.865" x2="1013.67" y2="1239.45" gradientUnits="userSpaceOnUse">
<stop stop-color="white" stop-opacity="0"/>
<stop offset="1" stop-color="#F0F0F0"/>
</linearGradient>
<linearGradient id="paint49_linear_2481_3211" x1="1273.48" y1="305.942" x2="1273.48" y2="751.507" gradientUnits="userSpaceOnUse">
<stop stop-color="white" stop-opacity="0"/>
<stop offset="1" stop-color="#F0F0F0"/>
</linearGradient>
<linearGradient id="paint50_linear_2481_3211" x1="879.224" y1="-117.202" x2="879.224" y2="328.385" gradientUnits="userSpaceOnUse">
<stop stop-color="white" stop-opacity="0"/>
<stop offset="1" stop-color="#F0F0F0"/>
</linearGradient>
<linearGradient id="paint51_linear_2481_3211" x1="1628.37" y1="-154.094" x2="1628.37" y2="291.492" gradientUnits="userSpaceOnUse">
<stop stop-color="white" stop-opacity="0"/>
<stop offset="1" stop-color="#F0F0F0"/>
</linearGradient>
<linearGradient id="paint52_linear_2481_3211" x1="772.737" y1="420.012" x2="772.737" y2="865.577" gradientUnits="userSpaceOnUse">
<stop stop-color="white" stop-opacity="0"/>
<stop offset="1" stop-color="#F0F0F0"/>
</linearGradient>
</defs>
</svg>
