<svg width="799" height="719" viewBox="0 0 799 719" fill="none" xmlns="http://www.w3.org/2000/svg">
<line x1="599.355" y1="55.3561" x2="695.355" y2="257.356" stroke="#D3D3D3" stroke-width="3"/>
<line x1="541.387" y1="324.631" x2="693.387" y2="256.631" stroke="#D3D3D3" stroke-width="3"/>
<line x1="541.855" y1="327.493" x2="397.855" y2="313.493" stroke="#D3D3D3" stroke-width="3"/>
<line x1="543.494" y1="326.137" x2="530.494" y2="468.137" stroke="#D3D3D3" stroke-width="3"/>
<line x1="373.115" y1="454.504" x2="529.115" y2="466.504" stroke="#D3D3D3" stroke-width="3"/>
<line x1="373.816" y1="457.259" x2="282.816" y2="516.259" stroke="#D3D3D3" stroke-width="3"/>
<line x1="210.075" y1="438.954" x2="283.075" y2="513.954" stroke="#D3D3D3" stroke-width="3"/>
<line x1="210.48" y1="439.755" x2="234.48" y2="584.755" stroke="#D3D3D3" stroke-width="3"/>
<line x1="160.015" y1="515.896" x2="234.015" y2="583.896" stroke="#D3D3D3" stroke-width="3"/>
<line x1="159.477" y1="518.422" x2="22.4774" y2="564.422" stroke="#D3D3D3" stroke-width="3"/>
<line x1="108.813" y1="677.917" x2="20.8126" y2="563.917" stroke="#D3D3D3" stroke-width="3"/>
<line x1="158.387" y1="518.369" x2="33.3867" y2="462.369" stroke="#D3D3D3" stroke-width="3"/>
<line x1="340.195" y1="572.487" x2="233.195" y2="586.487" stroke="#D3D3D3" stroke-width="3"/>
<line x1="648.236" y1="540.291" x2="528.236" y2="469.291" stroke="#D3D3D3" stroke-width="3"/>
<line x1="779.491" y1="290.411" x2="693.491" y2="259.411" stroke="#D3D3D3" stroke-width="3"/>
<circle cx="598" cy="56" r="37" fill="#D6D6D6"/>
<circle cx="598" cy="56" r="55" stroke="#D6D6D6" stroke-width="2"/>
<circle cx="780" cy="289" r="13" fill="#D6D6D6"/>
<circle cx="780" cy="289" r="18" stroke="#D6D6D6" stroke-width="2"/>
<circle cx="694" cy="258" r="18" fill="#D6D6D6"/>
<circle cx="694" cy="258" r="42" stroke="#D6D6D6" stroke-width="2"/>
<circle cx="542" cy="326" r="23" fill="#D6D6D6"/>
<g filter="url(#filter0_d_2481_3209)">
<circle cx="398" cy="312" r="19" fill="#D6D6D6"/>
</g>
<circle cx="542" cy="326" r="31" stroke="#D6D6D6" stroke-width="2"/>
<g filter="url(#filter1_d_2481_3209)">
<circle cx="398" cy="312" r="28" stroke="#D6D6D6" stroke-width="2" shape-rendering="crispEdges"/>
</g>
<circle cx="529" cy="468" r="34" fill="#D6D6D6"/>
<circle cx="529" cy="468" r="51" stroke="#D6D6D6" stroke-width="2"/>
<circle cx="649" cy="539" r="20" fill="#D6D6D6"/>
<circle cx="649" cy="539" r="30" stroke="#D6D6D6" stroke-width="2"/>
<circle cx="373" cy="456" r="13" fill="#D6D6D6"/>
<circle cx="373" cy="456" r="19" stroke="#D6D6D6" stroke-width="2"/>
<circle cx="282" cy="515" r="7" fill="#D6D6D6"/>
<circle cx="282" cy="515" r="16" stroke="#D6D6D6" stroke-width="2"/>
<circle cx="209" cy="440" r="24" fill="#D6D6D6"/>
<circle cx="233" cy="585" r="14" fill="#D6D6D6"/>
<circle cx="233" cy="585" r="25" stroke="#D6D6D6" stroke-width="2"/>
<circle cx="340" cy="571" r="10" fill="#D6D6D6"/>
<circle cx="340" cy="571" r="23" stroke="#D6D6D6" stroke-width="2"/>
<circle cx="159" cy="517" r="19" fill="#D6D6D6"/>
<circle cx="159" cy="517" r="28" stroke="#D6D6D6" stroke-width="2"/>
<circle cx="34" cy="461" r="17" fill="#D6D6D6"/>
<circle cx="34" cy="461" r="24" stroke="#D6D6D6" stroke-width="2"/>
<circle cx="22" cy="563" r="13" fill="#D6D6D6"/>
<circle cx="22" cy="563" r="21" stroke="#D6D6D6" stroke-width="2"/>
<circle cx="110" cy="677" r="20" fill="#D6D6D6"/>
<circle cx="110" cy="677" r="41" stroke="#D6D6D6" stroke-width="2"/>
<defs>
<filter id="filter0_d_2481_3209" x="375" y="293" width="46" height="46" filterUnits="userSpaceOnUse" color-interpolation-filters="sRGB">
<feFlood flood-opacity="0" result="BackgroundImageFix"/>
<feColorMatrix in="SourceAlpha" type="matrix" values="0 0 0 0 0 0 0 0 0 0 0 0 0 0 0 0 0 0 127 0" result="hardAlpha"/>
<feOffset dy="4"/>
<feGaussianBlur stdDeviation="2"/>
<feComposite in2="hardAlpha" operator="out"/>
<feColorMatrix type="matrix" values="0 0 0 0 0 0 0 0 0 0 0 0 0 0 0 0 0 0 0.1 0"/>
<feBlend mode="normal" in2="BackgroundImageFix" result="effect1_dropShadow_2481_3209"/>
<feBlend mode="normal" in="SourceGraphic" in2="effect1_dropShadow_2481_3209" result="shape"/>
</filter>
<filter id="filter1_d_2481_3209" x="365" y="283" width="66" height="66" filterUnits="userSpaceOnUse" color-interpolation-filters="sRGB">
<feFlood flood-opacity="0" result="BackgroundImageFix"/>
<feColorMatrix in="SourceAlpha" type="matrix" values="0 0 0 0 0 0 0 0 0 0 0 0 0 0 0 0 0 0 127 0" result="hardAlpha"/>
<feOffset dy="4"/>
<feGaussianBlur stdDeviation="2"/>
<feComposite in2="hardAlpha" operator="out"/>
<feColorMatrix type="matrix" values="0 0 0 0 0 0 0 0 0 0 0 0 0 0 0 0 0 0 0.1 0"/>
<feBlend mode="normal" in2="BackgroundImageFix" result="effect1_dropShadow_2481_3209"/>
<feBlend mode="normal" in="SourceGraphic" in2="effect1_dropShadow_2481_3209" result="shape"/>
</filter>
</defs>
</svg>
