<svg width="976" height="651" viewBox="0 0 976 651" fill="none" xmlns="http://www.w3.org/2000/svg">
<line x1="340.409" y1="254.911" x2="49.409" y2="164.911" stroke="#191919" stroke-width="4"/>
<line x1="342.101" y1="251.33" x2="521.101" y2="369.33" stroke="#191919" stroke-width="4"/>
<line x1="395.352" y1="548.867" x2="518.352" y2="369.867" stroke="#191919" stroke-width="4"/>
<line x1="741.904" y1="260.784" x2="520.904" y2="372.784" stroke="#191919" stroke-width="4"/>
<line x1="739.126" y1="258.301" x2="786.126" y2="132.301" stroke="#191919" stroke-width="4"/>
<line x1="742.799" y1="258.127" x2="890.799" y2="563.127" stroke="#191919" stroke-width="4"/>
<line x1="342.652" y1="254.128" x2="200.652" y2="462.128" stroke="#191919" stroke-width="4"/>
<circle cx="378" cy="44" r="42.5" stroke="#727272" stroke-width="3"/>
<circle cx="32.5" cy="32.5" r="32.5" transform="matrix(-1 0 0 1 553 338)" fill="#717171"/>
<circle cx="520.5" cy="370.5" r="48" stroke="#717171" stroke-width="3"/>
<circle cx="199.5" cy="460.5" r="42.5" fill="#00A0A8"/>
<circle cx="199.5" cy="460.5" r="101.5" stroke="#00A0A8" stroke-width="6"/>
<circle cx="28.5" cy="28.5" r="28.5" transform="matrix(-1 0 0 1 426 521)" fill="#717171"/>
<circle cx="397.5" cy="549.5" r="43" stroke="#717171" stroke-width="3"/>
<circle cx="25.5" cy="25.5" r="25.5" transform="matrix(-1 0 0 1 767 233)" fill="#717171"/>
<circle cx="741.5" cy="258.5" r="63" stroke="#717171" stroke-width="3"/>
<circle cx="16.5" cy="16.5" r="16.5" transform="matrix(-1 0 0 1 805 116)" fill="#717171"/>
<circle cx="788.5" cy="132.5" r="27.5" stroke="#717171" stroke-width="2"/>
<circle cx="889" cy="564" r="57" fill="#01656A"/>
<circle cx="889" cy="564" r="84" stroke="#3C4344" stroke-width="6"/>
<line x1="339.031" y1="252.651" x2="376.031" y2="43.6514" stroke="#191919" stroke-width="4"/>
<circle cx="378" cy="44" r="31" fill="#727272"/>
<circle cx="341.5" cy="251.5" r="54.5" fill="#727272"/>
<circle cx="341.5" cy="251.5" r="75.5" stroke="#727272" stroke-width="4"/>
<circle cx="50" cy="163" r="32" fill="#727272"/>
<circle cx="50" cy="163" r="49" stroke="#727272" stroke-width="2"/>
</svg>
