<svg width="869" height="746" viewBox="0 0 869 746" fill="none" xmlns="http://www.w3.org/2000/svg">
<circle cx="224.5" cy="167.5" r="17.5" fill="#D6D6D6"/>
<circle cx="224.5" cy="167.5" r="28.5" stroke="#D6D6D6" stroke-width="2"/>
<line x1="45.1426" y1="290.769" x2="223.143" y2="166.769" stroke="#D3D3D3" stroke-width="3"/>
<line x1="639.998" y1="634.065" x2="633.998" y2="726.065" stroke="#D3D3D3" stroke-width="2"/>
<line x1="500.469" y1="358.696" x2="529.469" y2="498.696" stroke="#D3D3D3" stroke-width="3"/>
<line x1="137.204" y1="44.8952" x2="47.2036" y2="165.895" stroke="#D3D3D3" stroke-width="3"/>
<line x1="137.223" y1="43.1319" x2="225.223" y2="167.132" stroke="#D3D3D3" stroke-width="3"/>
<line x1="244.487" y1="26.1989" x2="225.487" y2="168.199" stroke="#D3D3D3" stroke-width="3"/>
<line x1="46.5909" y1="290.621" x2="221.591" y2="365.621" stroke="#D3D3D3" stroke-width="3"/>
<line x1="259.714" y1="291.228" x2="316.714" y2="196.228" stroke="#D3D3D3" stroke-width="3"/>
<line x1="261.9" y1="290.8" x2="349.9" y2="356.8" stroke="#D3D3D3" stroke-width="3"/>
<line x1="377.523" y1="527.262" x2="347.523" y2="358.262" stroke="#D3D3D3" stroke-width="3"/>
<line x1="378.723" y1="525.526" x2="527.723" y2="497.526" stroke="#D3D3D3" stroke-width="3"/>
<line x1="637.841" y1="634.953" x2="526.841" y2="499.953" stroke="#D3D3D3" stroke-width="3"/>
<line x1="637.993" y1="632.888" x2="807.993" y2="478.888" stroke="#D3D3D3" stroke-width="3"/>
<line x1="380.459" y1="527.347" x2="346.459" y2="670.347" stroke="#D3D3D3" stroke-width="3"/>
<circle cx="499.5" cy="359.5" r="19.5" fill="#D6D6D6"/>
<circle cx="499.5" cy="359.5" r="30.5" stroke="#D6D6D6" stroke-width="2"/>
<circle cx="46" cy="165" r="19" fill="#D6D6D6"/>
<circle cx="46" cy="165" r="45" stroke="#D6D6D6" stroke-width="2"/>
<circle cx="137.5" cy="43.5" r="16.5" fill="#D6D6D6"/>
<circle cx="137.5" cy="43.5" r="22.5" stroke="#D6D6D6" stroke-width="2"/>
<circle cx="46.5" cy="291.5" r="17.5" fill="#D6D6D6"/>
<circle cx="46.5" cy="291.5" r="28.5" stroke="#D6D6D6" stroke-width="2"/>
<circle cx="243.5" cy="26.5" r="17.5" fill="#D6D6D6"/>
<circle cx="243.5" cy="26.5" r="25.5" stroke="#D6D6D6" stroke-width="2"/>
<circle cx="23.5" cy="23.5" r="23.5" transform="matrix(-1 0 0 1 342 173)" fill="#D6D6D6"/>
<circle cx="8.5" cy="8.5" r="8.5" transform="matrix(-1 0 0 1 230 358)" fill="#D6D6D6"/>
<circle cx="221.5" cy="366.5" r="21.5" stroke="#D6D6D6" stroke-width="2"/>
<circle cx="7.5" cy="7.5" r="7.5" transform="matrix(-1 0 0 1 269 284)" fill="#D6D6D6"/>
<circle cx="261.5" cy="291.5" r="15.5" stroke="#D6D6D6" stroke-width="2"/>
<circle cx="13.5" cy="13.5" r="13.5" transform="matrix(-1 0 0 1 363 344)" fill="#D6D6D6"/>
<circle cx="349.5" cy="357.5" r="18.5" stroke="#D6D6D6" stroke-width="2"/>
<circle cx="379.5" cy="526.5" r="33.5" fill="#D6D6D6"/>
<circle cx="379.5" cy="526.5" r="52" stroke="#D6D6D6" stroke-width="3"/>
<circle cx="345.5" cy="669.5" r="20.5" fill="#D6D6D6"/>
<circle cx="345.5" cy="669.5" r="30.5" stroke="#D6D6D6" stroke-width="2"/>
<circle cx="528.5" cy="498.5" r="22.5" fill="#D6D6D6"/>
<circle cx="528.5" cy="498.5" r="32.5" stroke="#D6D6D6" stroke-width="2"/>
<circle cx="639.5" cy="633.5" r="19.5" fill="#D6D6D6"/>
<circle cx="639.5" cy="633.5" r="42.5" stroke="#D6D6D6" stroke-width="2"/>
<circle cx="633.5" cy="725.5" r="11.5" fill="#D6D6D6"/>
<circle cx="633.5" cy="725.5" r="19.5" stroke="#D6D6D6" stroke-width="2"/>
<circle cx="809.5" cy="479.5" r="40.5" fill="#D6D6D6"/>
<circle cx="809.5" cy="479.5" r="58.5" stroke="#D6D6D6" stroke-width="2"/>
</svg>
