<svg width="780" height="403" viewBox="0 0 780 403" fill="none" xmlns="http://www.w3.org/2000/svg">
<line x1="650.174" y1="212.067" x2="708.174" y2="285.067" stroke="#D3D3D3" stroke-width="3"/>
<line x1="461.297" y1="285.247" x2="515.297" y2="378.247" stroke="#D3D3D3" stroke-width="3"/>
<line x1="41.8081" y1="353.089" x2="109.808" y2="264.089" stroke="#D3D3D3" stroke-width="3"/>
<line x1="108.514" y1="265.201" x2="93.5135" y2="154.201" stroke="#D3D3D3" stroke-width="3"/>
<line x1="219.565" y1="249.438" x2="197.565" y2="177.438" stroke="#D3D3D3" stroke-width="3"/>
<line x1="219.603" y1="248.454" x2="260.603" y2="143.454" stroke="#D3D3D3" stroke-width="3"/>
<line x1="221.591" y1="247.621" x2="298.591" y2="280.621" stroke="#D3D3D3" stroke-width="3"/>
<line x1="279.542" y1="223.351" x2="260.542" y2="144.351" stroke="#D3D3D3" stroke-width="3"/>
<line x1="280.927" y1="221.502" x2="362.927" y2="217.502" stroke="#D3D3D3" stroke-width="3"/>
<line x1="459.148" y1="287.234" x2="362.148" y2="220.234" stroke="#D3D3D3" stroke-width="3"/>
<line x1="458.798" y1="285.102" x2="523.798" y2="198.102" stroke="#D3D3D3" stroke-width="3"/>
<line x1="436.876" y1="133.782" x2="525.876" y2="197.782" stroke="#D3D3D3" stroke-width="3"/>
<line x1="648.832" y1="214.491" x2="524.832" y2="200.491" stroke="#D3D3D3" stroke-width="3"/>
<line x1="647.506" y1="212.869" x2="662.506" y2="41.8689" stroke="#D3D3D3" stroke-width="3"/>
<line x1="197.779" y1="177.872" x2="137.779" y2="93.8719" stroke="#D3D3D3" stroke-width="3"/>
<line x1="202.688" y1="178.467" x2="94.6876" y2="155.467" stroke="#D3D3D3" stroke-width="3"/>
<circle cx="39" cy="353" r="26" fill="#4DEDF5"/>
<circle cx="39" cy="353" r="38" stroke="#4DEDF5" stroke-width="2"/>
<circle cx="106" cy="264" r="13" fill="#BABABA"/>
<circle cx="106" cy="264" r="32" stroke="#BABABA" stroke-width="2"/>
<circle cx="91" cy="154" r="10" fill="#BABABA"/>
<circle cx="91" cy="154" r="16" stroke="#BABABA" stroke-width="2"/>
<circle cx="139" cy="93" r="13" fill="#BABABA"/>
<circle cx="139" cy="93" r="18" stroke="#BABABA" stroke-width="2"/>
<circle cx="199" cy="177" r="14" fill="#BABABA"/>
<circle cx="199" cy="177" r="20" stroke="#BABABA" stroke-width="2"/>
<circle cx="221" cy="249" r="9" fill="#BABABA"/>
<circle cx="221" cy="249" r="19" stroke="#BABABA" stroke-width="2"/>
<circle cx="262" cy="144" r="18" fill="#BABABA"/>
<circle cx="281" cy="223" r="4" fill="#BABABA"/>
<circle cx="281" cy="223" r="11" stroke="#BABABA" stroke-width="2"/>
<circle cx="363" cy="219" r="9" fill="#BABABA"/>
<circle cx="363" cy="219" r="13" stroke="#BABABA" stroke-width="2"/>
<circle cx="298" cy="282" r="6" fill="#BABABA"/>
<circle cx="298" cy="282" r="16" stroke="#BABABA" stroke-width="2"/>
<circle cx="460" cy="286" r="26" fill="#BABABA"/>
<circle cx="460" cy="286" r="38" stroke="#BABABA" stroke-width="2"/>
<circle cx="514" cy="380" r="15" fill="#BABABA"/>
<circle cx="514" cy="380" r="22" stroke="#BABABA" stroke-width="2"/>
<circle cx="525" cy="199" r="16" fill="#BABABA"/>
<circle cx="525" cy="199" r="23" stroke="#BABABA" stroke-width="2"/>
<circle cx="436" cy="135" r="15" fill="#BABABA"/>
<circle cx="436" cy="135" r="21" stroke="#BABABA" stroke-width="2"/>
<circle cx="649" cy="213" r="13" fill="#BABABA"/>
<circle cx="649" cy="213" r="33" stroke="#BABABA" stroke-width="2"/>
<circle cx="664" cy="42" r="30" fill="#4DEDF5"/>
<circle cx="664" cy="42" r="41" stroke="#BABABA" stroke-width="2"/>
<circle cx="707" cy="286" r="49" fill="#BABABA"/>
<circle cx="707" cy="286" r="71.5" stroke="#BABABA" stroke-width="3"/>
</svg>
