<svg width="36" height="36" viewBox="0 0 36 36" fill="none" xmlns="http://www.w3.org/2000/svg">
<path fill-rule="evenodd" clip-rule="evenodd" d="M10.8001 33.6004H18.0002C18.6626 33.6004 19.2002 33.0628 19.2002 32.4004C19.2002 31.7379 18.6626 31.2003 18.0002 31.2003H10.8001C10.1377 31.2003 9.60011 31.7379 9.60011 32.4004C9.60011 33.0628 10.1377 33.6004 10.8001 33.6004ZM2.40003 31.2003H6.00007C6.66249 31.2003 7.20008 31.7379 7.20008 32.4004C7.20008 33.0628 6.66249 33.6004 6.00007 33.6004H1.20001C0.537592 33.6004 0 33.0628 0 32.4004V27.6003C0 26.9379 0.537592 26.4003 1.20001 26.4003C1.86243 26.4003 2.40003 26.9379 2.40003 27.6003V31.2003ZM0 10.8001V21.6002C0 22.2627 0.537592 22.8003 1.20001 22.8003C1.86243 22.8003 2.40003 22.2627 2.40003 21.6002V10.8001C2.40003 10.1377 1.86243 9.60011 1.20001 9.60011C0.537592 9.60011 0 10.1377 0 10.8001ZM33.6292 18.0002V10.8001C33.6292 10.1377 33.0902 9.60011 32.4292 9.60011C31.7667 9.60011 31.2291 10.1377 31.2291 10.8001V18.0002C31.2291 18.6626 31.7667 19.2002 32.4292 19.2002C33.0902 19.2002 33.6292 18.6626 33.6292 18.0002ZM31.2291 2.40003H27.6567C26.9943 2.40003 26.4567 1.86243 26.4567 1.20001C26.4567 0.537592 26.9943 0 27.6567 0H32.4292C33.0916 0 33.6292 0.537592 33.6292 1.20001V6.00007C33.6292 6.66249 33.0902 7.20008 32.4292 7.20008C31.7667 7.20008 31.2291 6.66249 31.2291 6.00007V2.40003ZM2.40003 2.40003V6.00007C2.40003 6.66249 1.86243 7.20008 1.20001 7.20008C0.537592 7.20008 0 6.66249 0 6.00007V1.20001C0 0.537592 0.537592 0 1.20001 0H6.00007C6.66249 0 7.20008 0.537592 7.20008 1.20001C7.20008 1.86243 6.66249 2.40003 6.00007 2.40003H2.40003ZM22.8003 0H10.8001C10.1377 0 9.60011 0.537592 9.60011 1.20001C9.60011 1.86243 10.1377 2.40003 10.8001 2.40003H22.8003C23.4627 2.40003 24.0003 1.86243 24.0003 1.20001C24.0003 0.537592 23.4627 0 22.8003 0Z" fill="white"/>
<path fill-rule="evenodd" clip-rule="evenodd" d="M29.9823 31.6792C28.8699 32.4581 27.5164 32.915 26.0571 32.915C22.2723 32.915 19.2002 29.8419 19.2002 26.0571C19.2002 22.2723 22.2723 19.2002 26.0571 19.2002C29.842 19.2002 32.915 22.2723 32.915 26.0571C32.915 27.5164 32.4578 28.87 31.6792 29.9823L35.6489 33.9521C36.1168 34.42 36.1168 35.181 35.6489 35.649C35.1809 36.1169 34.4199 36.1169 33.952 35.649L29.9823 31.6792ZM29.2227 29.195C30.0207 28.3885 30.5152 27.2798 30.5152 26.057C30.5152 23.597 28.5172 21.6001 26.0571 21.6001C23.5971 21.6001 21.6002 23.597 21.6002 26.057C21.6002 28.517 23.5971 30.515 26.0571 30.515C27.2799 30.515 28.3889 30.0206 29.1951 29.2226C29.1986 29.2177 29.2034 29.2129 29.2083 29.2081C29.2131 29.2033 29.2179 29.1985 29.2227 29.195Z" fill="white"/>
</svg>
