<svg width="37" height="31" viewBox="0 0 37 31" fill="none" xmlns="http://www.w3.org/2000/svg">
<path fill-rule="evenodd" clip-rule="evenodd" d="M8.38927 0C10.4816 0 12.4883 0.831188 13.9678 2.31071C14.7004 3.0433 15.2815 3.91301 15.678 4.87018C16.0745 5.82735 16.2785 6.85324 16.2785 7.88927C16.2785 8.92531 16.0745 9.95119 15.678 10.9084C15.2815 11.8655 14.7004 12.7352 13.9678 13.4678C13.2352 14.2004 12.3655 14.7815 11.4084 15.178C10.4512 15.5745 9.4253 15.7785 8.38927 15.7785C6.29691 15.7785 4.29024 14.9474 2.81071 13.4678C1.33119 11.9883 0.5 9.98164 0.5 7.88927C0.5 5.79691 1.33119 3.79024 2.81071 2.31071C4.29024 0.831188 6.29691 0 8.38927 0ZM13.6451 8.66017C13.6576 8.62145 13.6624 8.58062 13.6591 8.54005V7.22638C13.6413 7.15124 13.6 7.08374 13.5412 7.03366C13.4824 6.98359 13.4092 6.95355 13.3322 6.94791H9.65149C9.61169 6.94485 9.57289 6.93396 9.53732 6.91585C9.50176 6.89774 9.47012 6.87277 9.44424 6.84239C9.41835 6.81201 9.39874 6.77681 9.38651 6.73881C9.37429 6.70082 9.3697 6.66078 9.37301 6.621V2.98874C9.37301 2.90204 9.33857 2.81889 9.27726 2.75758C9.21596 2.69627 9.13281 2.66183 9.04611 2.66183H7.73244C7.6476 2.66751 7.56771 2.70377 7.50759 2.76389C7.44747 2.82401 7.41121 2.9039 7.40553 2.98874V6.6089C7.40247 6.64949 7.39142 6.68907 7.37301 6.72537C7.35459 6.76167 7.32918 6.79397 7.29824 6.82042C7.26729 6.84686 7.23142 6.86693 7.1927 6.87946C7.15397 6.89198 7.11315 6.89673 7.07258 6.89342H3.44031C3.35495 6.90051 3.27498 6.93803 3.21497 6.99914C3.15496 7.06026 3.11892 7.14091 3.1134 7.22638V8.57032C3.11496 8.61167 3.12466 8.65231 3.14194 8.68991C3.15922 8.7275 3.18374 8.76133 3.2141 8.78944C3.24446 8.81755 3.28007 8.83941 3.31888 8.85374C3.3577 8.86808 3.39896 8.87463 3.44031 8.87301H7.11495C7.15552 8.87533 7.19523 8.88563 7.23181 8.90332C7.26839 8.92102 7.30112 8.94576 7.32811 8.97613C7.35511 9.00651 7.37584 9.0419 7.38913 9.08031C7.40241 9.11871 7.40799 9.15935 7.40553 9.19991V12.8806C7.40859 12.9204 7.41948 12.9592 7.43759 12.9948C7.4557 13.0303 7.48067 13.062 7.51105 13.0879C7.54143 13.1137 7.57664 13.1334 7.61463 13.1456C7.65263 13.1578 7.69266 13.1624 7.73244 13.1591H9.04611C9.13094 13.1534 9.21083 13.1171 9.27095 13.057C9.33107 12.9969 9.36734 12.917 9.37301 12.8322V9.19991C9.37868 9.11508 9.41495 9.03519 9.47507 8.97507C9.53519 8.91495 9.61508 8.87868 9.69991 8.87301H13.3746C13.4151 8.86995 13.4547 8.8589 13.491 8.84048C13.5273 8.82207 13.5596 8.79666 13.5861 8.76571C13.6125 8.73477 13.6326 8.6989 13.6451 8.66017ZM28.63 0.0466101C27.0735 0.0466101 25.5519 0.508172 24.2577 1.37293C22.9635 2.23769 21.9548 3.4668 21.3592 4.90484C20.7635 6.34288 20.6077 7.92525 20.9113 9.45187C21.215 10.9785 21.9645 12.3808 23.0651 13.4814C24.1658 14.582 25.5681 15.3316 27.0947 15.6352C28.6213 15.9389 30.2037 15.783 31.6417 15.1874C33.0797 14.5917 34.3088 13.583 35.1736 12.2888C36.0384 10.9946 36.4999 9.47304 36.4999 7.91652C36.4999 5.82929 35.6708 3.82755 34.1949 2.35166C32.719 0.87576 30.7172 0.0466101 28.63 0.0466101ZM32.5286 8.43715C32.5111 8.55585 32.4511 8.66418 32.3599 8.74208C32.2686 8.81999 32.1522 8.8622 32.0322 8.86091H25.2278C25.1074 8.86617 24.9896 8.82522 24.8984 8.74644C24.8073 8.66766 24.7497 8.55701 24.7374 8.43715C24.7072 8.06647 24.7072 7.69393 24.7374 7.32325C24.7548 7.20559 24.8139 7.09808 24.9039 7.02031C24.9939 6.94253 25.1088 6.89966 25.2278 6.89949H32.0322C32.1522 6.8982 32.2686 6.94041 32.3599 7.01832C32.4511 7.09622 32.5111 7.20455 32.5286 7.32325C32.5589 7.69393 32.5589 8.06647 32.5286 8.43715ZM14.5974 20.2299H2.15686C1.89508 20.2315 1.64437 20.3357 1.45869 20.5203C1.27302 20.7048 1.16721 20.9549 1.16404 21.2167V22.2095C1.16718 22.4718 1.27279 22.7225 1.45831 22.908C1.64382 23.0935 1.89452 23.1992 2.15686 23.2023H14.5974C14.8597 23.1992 15.1104 23.0935 15.2959 22.908C15.4814 22.7225 15.5871 22.4718 15.5902 22.2095V21.2167C15.587 20.9549 15.4812 20.7048 15.2955 20.5203C15.1099 20.3357 14.8592 20.2315 14.5974 20.2299ZM22.4189 20.2299H34.8474C34.9769 20.2299 35.1053 20.2554 35.225 20.305C35.3447 20.3546 35.4535 20.4273 35.5451 20.5189C35.6367 20.6105 35.7094 20.7193 35.759 20.839C35.8086 20.9588 35.8341 21.0871 35.8341 21.2167V22.2095C35.8326 22.4713 35.7283 22.722 35.5437 22.9076C35.3592 23.0933 35.1091 23.1991 34.8474 23.2023H22.4189C22.1572 23.1991 21.9071 23.0933 21.7226 22.9076C21.538 22.722 21.4337 22.4713 21.4322 22.2095V21.2167C21.4322 21.0871 21.4577 20.9588 21.5073 20.839C21.5569 20.7193 21.6296 20.6105 21.7212 20.5189C21.8128 20.4273 21.9216 20.3546 22.0413 20.305C22.161 20.2554 22.2894 20.2299 22.4189 20.2299ZM22.4189 27.2038H34.8474C35.1086 27.2054 35.3586 27.3099 35.5434 27.4946C35.7281 27.6793 35.8325 27.9294 35.8341 28.1906V29.1895C35.8341 29.4512 35.7302 29.7022 35.5451 29.8872C35.36 30.0723 35.1091 30.1762 34.8474 30.1762H22.4189C22.1572 30.1762 21.9063 30.0723 21.7212 29.8872C21.5361 29.7022 21.4322 29.4512 21.4322 29.1895V28.1966C21.4337 27.9349 21.538 27.6842 21.7226 27.4985C21.9071 27.3128 22.1572 27.207 22.4189 27.2038ZM2.15686 27.2038H14.5974C14.8592 27.2054 15.1099 27.3097 15.2955 27.4942C15.4812 27.6788 15.587 27.9288 15.5902 28.1906V29.1834C15.587 29.4452 15.4812 29.6952 15.2955 29.8798C15.1099 30.0643 14.8592 30.1686 14.5974 30.1702H2.15686C1.89563 30.1702 1.64492 30.0673 1.45908 29.8837C1.27323 29.7001 1.16723 29.4507 1.16404 29.1895V28.1966C1.16718 27.9343 1.27279 27.6836 1.45831 27.4981C1.64382 27.3126 1.89452 27.207 2.15686 27.2038Z" fill="white"/>
</svg>
